<svg width="20" height="21" fill="none" xmlns="http://www.w3.org/2000/svg"><path fill-rule="evenodd" clip-rule="evenodd" d="M5.877.893C6.944.844 7.284.833 10 .833s3.056.012 4.122.06c1.065.049 1.793.219 2.429.465a4.92 4.92 0 0 1 1.77 1.154c.51.5.903 1.103 1.153 1.77.248.637.417 1.364.466 2.428.05 1.068.06 1.408.06 4.123 0 2.717-.012 3.057-.06 4.123-.048 1.064-.218 1.791-.466 2.427a4.904 4.904 0 0 1-1.152 1.772c-.5.51-1.105.902-1.771 1.153-.636.247-1.364.416-2.427.465-1.068.05-1.408.06-4.124.06-2.716 0-3.056-.011-4.123-.06-1.063-.048-1.79-.218-2.427-.465a4.906 4.906 0 0 1-1.772-1.153 4.9 4.9 0 0 1-1.153-1.77C.278 16.747.109 16.02.06 14.956.01 13.889 0 13.549 0 10.833s.012-3.056.06-4.121c.048-1.066.218-1.793.465-2.43a4.906 4.906 0 0 1 1.154-1.77 4.902 4.902 0 0 1 1.77-1.154c.636-.246 1.364-.416 2.427-.465h.001Zm8.164 1.8c-1.055-.048-1.371-.058-4.041-.058-2.67 0-2.986.01-4.04.058-.976.045-1.505.208-1.858.345-.467.182-.8.397-1.15.747a3.102 3.102 0 0 0-.747 1.15c-.138.353-.3.882-.345 1.857-.048 1.055-.058 1.371-.058 4.041 0 2.67.01 2.987.058 4.041.045.976.207 1.505.345 1.857.16.434.415.828.747 1.15.323.332.716.588 1.15.748.353.137.882.3 1.857.344 1.055.049 1.37.059 4.041.059 2.67 0 2.986-.01 4.04-.059.976-.044 1.506-.207 1.858-.344.466-.182.8-.398 1.15-.748.332-.322.588-.716.748-1.15.137-.352.3-.881.344-1.857.048-1.054.058-1.37.058-4.04s-.01-2.987-.058-4.042c-.044-.975-.207-1.504-.345-1.857a3.106 3.106 0 0 0-.747-1.15 3.103 3.103 0 0 0-1.15-.747c-.352-.137-.882-.3-1.857-.345ZM8.723 13.916a3.335 3.335 0 0 0 3.636-5.442 3.336 3.336 0 1 0-3.636 5.442ZM6.365 7.2a5.14 5.14 0 1 1 7.27 7.27 5.14 5.14 0 0 1-7.27-7.27Zm9.915-.74a1.215 1.215 0 1 0-1.668-1.768A1.215 1.215 0 0 0 16.28 6.46Z" fill="#333"/></svg>