<svg width="60" height="144" fill="none" xmlns="http://www.w3.org/2000/svg"><path d="m18.3 98.057 18.036 7.804c1.77.762 3.252 1.582 4.447 2.461a8.266 8.266 0 0 1 2.672 3.34c.598 1.336.897 3.088.897 5.256 0 .586-.041 1.301-.123 2.144a15.88 15.88 0 0 1-.405 2.356h-5.8a8.698 8.698 0 0 0 .527-2.127c.082-.762.123-1.447.123-2.057 0-.644-.1-1.166-.299-1.564-.21-.41-.469-.733-.773-.967a4.142 4.142 0 0 0-.914-.527L18.3 122.561v-7.489l7.84-3.164c.398-.164.89-.357 1.476-.58a39.31 39.31 0 0 1 1.758-.633c.598-.211 1.12-.369 1.564-.474v-.211a25.714 25.714 0 0 1-1.968-.58 60.026 60.026 0 0 1-2.092-.739c-.656-.246-1.131-.421-1.424-.527l-7.154-2.619v-7.488ZM44 74.302v6.873H29.2v4.043c2.765.246 5.115.55 7.048.914 1.922.351 3.48.826 4.676 1.423 1.195.598 2.068 1.36 2.619 2.286.539.914.809 2.056.809 3.427 0 .54-.053 1.096-.159 1.67a7.55 7.55 0 0 1-.369 1.442H38.71c.117-.235.2-.475.246-.721.047-.258.07-.533.07-.826a1.38 1.38 0 0 0-.28-.826c-.188-.258-.563-.504-1.126-.739-.562-.246-1.389-.474-2.478-.685-1.102-.211-2.55-.416-4.342-.615-1.793-.2-4.031-.387-6.715-.563V74.302H44ZM18.3 50.195h5.608v10.16H44v6.979H18.3v-17.14Zm0-27.64 18.036 7.805c1.77.762 3.252 1.582 4.447 2.46a8.268 8.268 0 0 1 2.672 3.34c.598 1.337.897 3.088.897 5.256 0 .586-.041 1.301-.123 2.145a15.9 15.9 0 0 1-.405 2.355h-5.8a8.703 8.703 0 0 0 .527-2.127 19.4 19.4 0 0 0 .123-2.056c0-.645-.1-1.166-.299-1.565a2.81 2.81 0 0 0-.773-.966 4.137 4.137 0 0 0-.914-.528L18.3 47.06v-7.488l7.84-3.164c.398-.164.89-.358 1.476-.58.574-.223 1.16-.434 1.758-.633a15.62 15.62 0 0 1 1.564-.475v-.21a26.166 26.166 0 0 1-1.968-.58 60.064 60.064 0 0 1-2.092-.74c-.656-.245-1.131-.421-1.424-.526l-7.154-2.62v-7.488Z" fill="#333"/></svg>