<svg width="60" height="144" viewBox="0 0 60 144" fill="none" xmlns="http://www.w3.org/2000/svg">
<path d="M18.3008 98.0566L36.3359 105.861C38.1055 106.623 39.5879 107.443 40.7832 108.322C41.9668 109.201 42.8574 110.314 43.4551 111.662C44.0527 112.998 44.3516 114.75 44.3516 116.918C44.3516 117.504 44.3105 118.219 44.2285 119.062C44.1465 119.895 44.0117 120.68 43.8242 121.418L38.0234 121.418C38.2812 120.762 38.457 120.053 38.5508 119.291C38.6328 118.529 38.6738 117.844 38.6738 117.234C38.6738 116.59 38.5742 116.068 38.375 115.67C38.1641 115.26 37.9062 114.937 37.6016 114.703C37.2852 114.469 36.9805 114.293 36.6875 114.176L18.3008 122.561L18.3008 115.072L26.1406 111.908C26.5391 111.744 27.0312 111.551 27.6172 111.328C28.1914 111.105 28.7773 110.895 29.375 110.695C29.9727 110.484 30.4941 110.326 30.9395 110.221L30.9395 110.01C30.3652 109.869 29.709 109.676 28.9707 109.43C28.2324 109.184 27.5352 108.937 26.8789 108.691C26.2227 108.445 25.748 108.27 25.4551 108.164L18.3008 105.545L18.3008 98.0566ZM44 74.3016L44 81.1746L29.1992 81.1746L29.1992 85.2176C31.9648 85.4637 34.3145 85.7684 36.248 86.1316C38.1699 86.4832 39.7285 86.9578 40.9238 87.5555C42.1191 88.1531 42.9922 88.9148 43.543 89.8406C44.082 90.7547 44.3516 91.8973 44.3516 93.2684C44.3516 93.8074 44.2988 94.3641 44.1934 94.9383C44.0996 95.5008 43.9766 95.9812 43.8242 96.3797L38.709 96.3797C38.8262 96.1453 38.9082 95.9051 38.9551 95.659C39.002 95.4012 39.0254 95.1258 39.0254 94.8328C39.0254 94.5398 38.9316 94.2645 38.7441 94.0066C38.5566 93.7488 38.1816 93.5027 37.6191 93.2684C37.0566 93.0223 36.2305 92.7937 35.1406 92.5828C34.0391 92.3719 32.5918 92.1668 30.7988 91.9676C29.0059 91.7684 26.7676 91.5809 24.084 91.4051L24.084 74.3016L44 74.3016ZM18.3008 50.1949L23.9082 50.1949L23.9082 60.3551L44 60.3551L44 67.3336L18.3008 67.3336L18.3008 50.1949ZM18.3008 22.5551L36.3359 30.3598C38.1055 31.1215 39.5879 31.9418 40.7832 32.8207C41.9668 33.6996 42.8574 34.8129 43.4551 36.1605C44.0527 37.4965 44.3516 39.2484 44.3516 41.4164C44.3516 42.0023 44.3105 42.7172 44.2285 43.5609C44.1465 44.393 44.0117 45.1781 43.8242 45.9164L38.0234 45.9164C38.2812 45.2602 38.457 44.5512 38.5508 43.7895C38.6328 43.0277 38.6738 42.3422 38.6738 41.7328C38.6738 41.0883 38.5742 40.5668 38.375 40.1684C38.1641 39.7582 37.9062 39.4359 37.6016 39.2016C37.2852 38.9672 36.9805 38.7914 36.6875 38.6742L18.3008 47.059L18.3008 39.5707L26.1406 36.4066C26.5391 36.2426 27.0312 36.0492 27.6172 35.8266C28.1914 35.6039 28.7773 35.393 29.375 35.1937C29.9727 34.9828 30.4941 34.8246 30.9394 34.7191L30.9394 34.5082C30.3652 34.3676 29.709 34.1742 28.9707 33.9281C28.2324 33.682 27.5352 33.4359 26.8789 33.1898C26.2227 32.9437 25.748 32.768 25.4551 32.6625L18.3008 30.0434L18.3008 22.5551Z" fill="#333333"/>
</svg>
