<svg width="54" height="54" viewBox="0 0 54 54" fill="none" xmlns="http://www.w3.org/2000/svg">
<path d="M27 3.375C22.3274 3.375 17.7598 4.76058 13.8747 7.35653C9.98955 9.95248 6.96148 13.6422 5.17336 17.9591C3.38524 22.276 2.91738 27.0262 3.82896 31.609C4.74053 36.1918 6.9906 40.4014 10.2946 43.7054C13.5986 47.0094 17.8082 49.2595 22.391 50.1711C26.9738 51.0826 31.724 50.6148 36.0409 48.8267C40.3578 47.0385 44.0475 44.0105 46.6435 40.1253C49.2394 36.2402 50.625 31.6726 50.625 27C50.625 20.7343 48.136 14.7252 43.7054 10.2946C39.2749 5.86406 33.2658 3.375 27 3.375ZM39.5668 28.5103L19.3168 38.6353C19.0595 38.7639 18.7735 38.8246 18.4862 38.8116C18.1988 38.7985 17.9195 38.7123 17.6748 38.5609C17.4302 38.4096 17.2283 38.1983 17.0883 37.9469C16.9483 37.6956 16.8749 37.4127 16.875 37.125V16.875C16.8752 16.5875 16.9488 16.3047 17.0889 16.0536C17.229 15.8026 17.4309 15.5914 17.6756 15.4403C17.9202 15.2892 18.1993 15.203 18.4866 15.1901C18.7738 15.1772 19.0596 15.2378 19.3168 15.3664L39.5668 25.4914C39.8468 25.6317 40.0821 25.8471 40.2466 26.1135C40.4111 26.3799 40.4982 26.6869 40.4982 27C40.4982 27.3131 40.4111 27.6201 40.2466 27.8865C40.0821 28.1529 39.8468 28.3683 39.5668 28.5086V28.5103Z" fill="white"/>
</svg>
